<svg width="30" height="30" viewBox="0 0 30 30" fill="none" xmlns="http://www.w3.org/2000/svg">
<g id="Files/Documents, File, Pdf">
<g id="Group">
<g id="Group_2">
<path id="Path" fill-rule="evenodd" clip-rule="evenodd" d="M23.0175 8.0175L19.4825 4.4825C19.0138 4.01375 18.3775 3.75 17.715 3.75H8.75C7.36875 3.75 6.25 4.86875 6.25 6.25V23.75C6.25 25.1313 7.36875 26.25 8.75 26.25H21.25C22.6313 26.25 23.75 25.1313 23.75 23.75V9.785C23.75 9.1225 23.4863 8.48625 23.0175 8.0175V8.0175Z" stroke="#fff" stroke-width="1.5" stroke-linecap="round" stroke-linejoin="round"/>
<path id="Path_2" d="M23.75 10H18.75C18.06 10 17.5 9.44 17.5 8.75V3.75" stroke="#fff" stroke-width="1.5" stroke-linecap="round" stroke-linejoin="round"/>
<path id="Path_3" d="M12.9248 20.6875H17.0748" stroke="#fff" stroke-width="1.5" stroke-linecap="round" stroke-linejoin="round"/>
<path id="Path_4" fill-rule="evenodd" clip-rule="evenodd" d="M13.541 15.9388V14.4788C13.541 14.0763 13.8673 13.75 14.2698 13.75H15.7298C16.1323 13.75 16.4585 14.0763 16.4585 14.4788V15.9388C16.4585 16.3413 16.1323 16.6675 15.7298 16.6675H14.2698C13.8673 16.6663 13.541 16.34 13.541 15.9388Z" stroke="#fff" stroke-width="1.5" stroke-linecap="round" stroke-linejoin="round"/>
<path id="Path_5" fill-rule="evenodd" clip-rule="evenodd" d="M10 21.7713V20.3113C10 19.9088 10.3263 19.5825 10.7288 19.5825H12.1888C12.5913 19.5825 12.9175 19.9088 12.9175 20.3113V21.7713C12.9175 22.1738 12.5913 22.5 12.1888 22.5H10.7288C10.3263 22.5 10 22.1738 10 21.7713Z" stroke="#fff" stroke-width="1.5" stroke-linecap="round" stroke-linejoin="round"/>
<path id="Path_6" fill-rule="evenodd" clip-rule="evenodd" d="M17.084 21.7713V20.3113C17.084 19.9088 17.4102 19.5825 17.8127 19.5825H19.2727C19.6752 19.5825 20.0015 19.9088 20.0015 20.3113V21.7713C20.0002 22.1738 19.674 22.5 19.2715 22.5H17.8115C17.4102 22.5 17.084 22.1738 17.084 21.7713H17.084Z" stroke="#fff" stroke-width="1.5" stroke-linecap="round" stroke-linejoin="round"/>
<path id="Path_7" d="M17.7996 19.5875L15.9121 16.6375" stroke="#fff" stroke-width="1.5" stroke-linecap="round" stroke-linejoin="round"/>
<path id="Path_8" d="M12.2002 19.5875L14.0877 16.6375" stroke="#fff" stroke-width="1.5" stroke-linecap="round" stroke-linejoin="round"/>
</g>
</g>
</g>
</svg>
